{
  "asset": {"version": "2.0", "generator": "Haikalat v0.13 project fixture"},
  "scene": 0,
  "scenes": [{"name": "showcase", "nodes": [0, 1]}],
  "nodes": [
    {"name": "left", "mesh": 0, "translation": [-0.75, 0, 0]},
    {"name": "right", "mesh": 0, "translation": [0.75, 0, 0], "scale": [-1, 1, 1]}
  ],
  "buffers": [{
    "byteLength": 36,
    "uri": "data:application/octet-stream;base64,"
  }],
  "bufferViews": [{"buffer": 0, "byteLength": 36}],
  "accessors": [{"bufferView": 0, "componentType": 5126, "count": 3,
    "type": "VEC3", "min": [0, 0, 0], "max": [1, 1, 0]}],
  "materials": [{"name": "fixture bronze", "pbrMetallicRoughness": {
    "baseColorFactor": [0.8, 0.24, 0.08, 1], "metallicFactor": 0.55, "roughnessFactor": 0.35
  }, "doubleSided": true}],
  "meshes": [{"name": "shared triangle", "primitives": [{
    "attributes": {"POSITION": 0}, "material": 0
  }]}]
}
