{"asset":{"version":"2.0","generator":"Blockbench 5.1.6 glTF exporter"},"scenes":[{"nodes":[11],"name":"blockbench_export"}],"scene":0,"nodes":[{"translation":[0,0.375,0],"name":"head"},{"translation":[0.1875,0.375,0],"name":"right_hand"},{"rotation":[-1,0,0,6.123233995736766e-17],"translation":[0.1875,0.375,0],"name":"right_arm","children":[1]},{"translation":[-0.1875,0.375,0],"name":"left_hand"},{"rotation":[-1,0,0,6.123233995736766e-17],"translation":[-0.1875,0.375,0],"name":"left_arm","children":[3]},{"translation":[0,0.375,0],"name":"chest","children":[0,2,4]},{"translation":[0,0.75,0],"name":"torso","children":[5]},{"translation":[0,0.375,0],"name":"right_shin"},{"rotation":[-1,0,0,6.123233995736766e-17],"translation":[0.125,0.75,0],"name":"right_leg","children":[7]},{"translation":[0,0.375,0],"name":"left_shin"},{"rotation":[-1,0,0,6.123233995736766e-17],"translation":[-0.125,0.75,0],"name":"left_leg","children":[9]},{"name":"armature","mesh":0,"children":[6,8,10],"skin":0}],"bufferViews":[{"buffer":0,"byteOffset":0,"byteLength":13056,"target":34962,"byteStride":12},{"buffer":0,"byteOffset":13056,"byteLength":13056,"target":34962,"byteStride":12},{"buffer":0,"byteOffset":26112,"byteLength":8704,"target":34962,"byteStride":8},{"buffer":0,"byteOffset":34816,"byteLength":8704,"target":34962,"byteStride":8},{"buffer":0,"byteOffset":43520,"byteLength":17408,"target":34962,"byteStride":16},{"buffer":0,"byteOffset":60928,"byteLength":3264,"target":34963},{"buffer":0,"byteOffset":64192,"byteLength":704}],"buffers":[{"byteLength":64896,"uri":"data:application/octet-stream;base64,"}],"accessors":[{"bufferView":0,"componentType":5126,"count":1088,"max":[0.515625,2.03125,0.28125],"min":[-0.515625,-0.015625,-0.28125],"type":"VEC3"},{"bufferView":1,"componentType":5126,"count":1088,"max":[1,1,1],"min":[-1,-1,-1],"type":"VEC3"},{"bufferView":2,"componentType":5126,"count":1088,"max":[1,1],"min":[0,0],"type":"VEC2"},{"bufferView":3,"componentType":5123,"count":1088,"max":[10,7,0,0],"min":[0,0,0,0],"type":"VEC4"},{"bufferView":4,"componentType":5126,"count":1088,"max":[1,0.11140355467796326,0,0],"min":[0.8885964751243591,0,0,0],"type":"VEC4"},{"bufferView":5,"componentType":5123,"count":1632,"max":[1087],"min":[0],"type":"SCALAR"},{"bufferView":6,"componentType":5126,"count":11,"max":[1,0,0,0,0,1,1.2246468525851679e-16,0,0,0,1,0,0.375,1.5,0,1],"min":[1,0,0,0,0,-1,0,0,0,-1.2246468525851679e-16,-1,0,-0.375,-1.5,-1.8369701465288538e-16,1],"type":"MAT4"}],"materials":[{"pbrMetallicRoughness":{"metallicFactor":0,"roughnessFactor":1,"baseColorTexture":{"index":0}},"alphaMode":"MASK","alphaCutoff":0.05,"doubleSided":true}],"textures":[{"sampler":0,"source":0,"name":"steve.png"}],"samplers":[{"magFilter":9728,"minFilter":9728,"wrapS":33071,"wrapT":33071}],"images":[{"mimeType":"image/png","name":"steve.png","uri":"steve.png"}],"meshes":[{"primitives":[{"mode":4,"attributes":{"POSITION":0,"NORMAL":1,"TEXCOORD_0":2,"JOINTS_0":3,"WEIGHTS_0":4},"indices":5,"material":0}]}],"skins":[{"inverseBindMatrices":6,"joints":[6,5,0,2,1,4,3,8,7,10,9],"skeleton":6}]}